<?xml version="1.0" encoding="utf-8"?>
<!-- Generator: Adobe Illustrator 26.0.1, SVG Export Plug-In . SVG Version: 6.00 Build 0)  -->
<svg version="1.1" id="Layer_1" xmlns="http://www.w3.org/2000/svg" xmlns:xlink="http://www.w3.org/1999/xlink" x="0px" y="0px"
	 viewBox="0 0 32 32" style="enable-background:new 0 0 32 32;" xml:space="preserve">
<style type="text/css">
</style>
<g>
	<g class="st0">
		<circle class="st1" cx="16" cy="16" r="16"/>
	</g>
	<g>
		<path d="M16,32C7.2,32,0,24.8,0,16S7.2,0,16,0s16,7.2,16,16S24.8,32,16,32z M16,1C7.7,1,1,7.7,1,16c0,8.3,6.7,15,15,15
			c8.3,0,15-6.7,15-15C31,7.7,24.3,1,16,1z"/>
	</g>
</g>
<polygon points="22,16.2 22.3,15.9 22,15.6 21.6,15.2 21.6,15.2 21.6,15.2 16.2,9.8 15.2,10.8 19.6,15.2 10.1,15.2 10.1,16.6 
	19.6,16.6 15.2,21 16.2,22 21.6,16.6 21.6,16.6 21.6,16.6 22,16.2 "/>
</svg>
