<svg id="Layer_1" xmlns="http://www.w3.org/2000/svg"  x="0px" y="0px"
	 viewBox="0 0 2307.96997 407.29001" >
<g id="Layer_2_00000079473966681312878150000008130550272874370465_">
	<g id="Layer_1-2">
		<g>
			<path d="M1526.81006,330h-63.41003c-0.07996-1.81-0.20996-3.45001-0.20996-5.09c0-45.83334,0-91.66667,0-137.5
				c0.08752-6.59819-0.81921-13.17194-2.68994-19.5c-3-9.60001-9-16.63-18.45996-20.56c-9.13-3.8-18.65002-3.8-27.93005-1.77
				c-8.86792,1.96681-16.59937,7.35834-21.51001,15c-5.08862,7.60158-7.73975,16.57347-7.6001,25.72
				c0,46.19333,0,92.38332,0,138.56999c0,1.64001-0.15002,3.28-0.23999,5.12h-61.09998c-0.06995-1.45999-0.19995-3-0.19995-4.45999
				c0-41.14667,0-82.3,0-123.45999c0-5-0.15002-10.08,0-15.11c0.22351-5.3821-0.31519-10.76875-1.59998-16
				c-2.79004-11.21001-9.16003-19.39999-20.19995-23.77c-8.84998-3.5-17.93005-3.42-26.85999-1.55
				c-6.79333,1.56621-12.94116,5.18288-17.61023,10.36c-6,6.36-9.18005,14-11,22.45999c-0.75989,3.87537-1.09521,7.82199-1,11.77
				V330h-62.88c-0.76001-2.57001-1-227.83-0.28003-233.59h63.14001V135.17l0.69995,0.23
				c0.54065-0.4973,1.00256-1.07388,1.37-1.71001c3.41479-8.95441,8.76575-17.04382,15.67017-23.68999
				c4.81238-4.63634,10.34399-8.46255,16.38-11.33c12.34058-6.01501,26.10645-8.49334,39.77002-7.16
				c13.65002,1.32,26.44995,5.45,37.10999,14.64c4.57751,3.82002,8.51099,8.35118,11.65002,13.42
				c3.66687,5.8577,6.45325,12.22232,8.27002,18.89c0.19067,0.45815,0.42505,0.89685,0.69995,1.31
				c0.57397-0.57234,1.06543-1.22194,1.45996-1.92999c1.94507-5.25934,4.58154-10.23638,7.83997-14.8
				c9.04248-12.73901,21.90234-22.27184,36.71997-27.22c11.56995-3.88,23.56995-5.65,35.77002-4.25c11.21997,1.28,22.13,4,32,9.79
				c8.2915,4.76223,15.50647,11.19067,21.18994,18.88c4.92822,6.88509,8.76025,14.49191,11.35999,22.55
				c0.72107,2.53342,1.30518,5.10381,1.75,7.7c1.44763,6.56807,2.17529,13.27431,2.17004,20
				c0.04004,51.71333,0.04004,103.42334,0,155.13C1527.06995,327,1526.91003,328.39999,1526.81006,330z"/>
			<path d="M1983.17004,136.08c0.08997-6.64,0-13.29,0-19.93s0-13.43,0-20.15V15.58H2046.87V330h-63.59998
				c0-4.26999-0.07996-8.54001-0.08997-12.81c0-4.44,0-8.88,0-13.32001v-13.41c-1.53259,0.98096-2.69934,2.43945-3.31995,4.14999
				c-4.23193,8.58643-10.21741,16.19003-17.56995,22.32001c-12,10.17999-25.93994,15.67999-41.56995,17.48001
				c-9.78516,1.04492-19.66858,0.70831-29.35999-1c-8.01001-1.44394-15.76111-4.06924-23-7.79001
				c-9.28613-4.68671-17.61548-11.06601-24.56006-18.81c-4.97485-5.62216-9.27417-11.80765-12.81006-18.42999
				c-2.38342-4.64914-4.45142-9.45331-6.19006-14.38c-4.39966-11.63647-7.21167-23.81265-8.35999-36.2
				c-1.04871-9.04506-1.55957-18.14439-1.53003-27.25c0.09692-12.34303,1.30176-24.65244,3.59998-36.78
				c2.31787-12.33937,6.4635-24.26393,12.30005-35.38c4.21362-8.03366,9.56555-15.41656,15.89001-21.92
				c4.21448-4.34412,8.91162-8.19241,14-11.47c7.31702-4.73187,15.35547-8.2411,23.80005-10.39
				c10.06995-2.47,20.22998-4,30.59998-3.2c5.12451,0.45854,10.21692,1.22324,15.25,2.29
				c6.54797,1.3862,12.85132,3.74574,18.69995,7c10.59998,5.59418,19.59192,13.80811,26.12,23.86c2.12,3.31,4,6.76,6,10.13
				c0.35925,0.53169,0.75696,1.03638,1.18994,1.50999L1983.17004,136.08z M1879.76001,215.41
				c0.04492,4.47469,0.32202,8.94402,0.82996,13.39c0.78174,5.31813,1.98901,10.56497,3.60999,15.69
				c2.41248,8.26918,6.60364,15.91093,12.28003,22.39c4.40784,5.00449,9.87305,8.96671,16,11.60001
				c9.42004,4,19.33997,4.57999,29.26001,2.63c11.06006-2.17001,20-8.14001,27-17c7.63782-9.91306,12.35815-21.7606,13.63-34.20999
				c1.68005-14.42,1.84998-28.89-2-43.16c-3.27002-12.16-8.80005-22.89-18.33997-31.33c-5.47168-5.06421-12.23206-8.524-19.54004-10
				c-9.32996-1.69-18.72998-1.69-28,1.71001c-8.66907,3.20177-16.16248,8.95871-21.48999,16.50998
				c-5.23999,7.17999-8.43994,15.42999-10.51001,24.10001C1880.46997,196.05,1879.76001,204.5,1879.76001,215.41z"/>
			<path d="M676.91998,15.55h63.57001v30.12c0,10.08,0,20.16,0,30.24c0,9.96,0,19.92,0,29.88s0,19.96,0,30l1,0.28
				c0.46002-0.69,1-1.36,1.37-2.08c2.37-4.12,4.48999-8.41,7.12-12.36c3.487-5.10421,7.67468-9.6925,12.44-13.62999
				c6.22467-5.20938,13.36694-9.21124,21.06-11.8C794.23529,92.43055,805.61572,90.76694,817,91.3c13.29999,0.65,26,3.5,37.81,10
				c8.55975,4.75609,16.04858,11.2237,22,19c7.71002,9.87,12.31,21.09,15.41998,33.06999C894.73999,163.08,895.37,173,895.38,182.95
				c0.06659,47.51999,0.06659,95.03667,0,142.55v4.5H832.06c-0.12-1.67999-0.35999-3.41-0.35999-5.14001c0-27.72,0-55.44003,0-83.16
				c0-14.75999,0.09998-29.52,0-44.28c-0.02759-5.39281-0.4118-10.77789-1.15002-16.12
				C829.48285,173.16171,826.1767,165.47964,821,159.11c-4.30255-5.4808-10.09894-9.59973-16.69-11.86
				c-3.54999-1.17-7.07001-2.47-10.78003-2.48c-6,0-12.06-0.24001-17.91998,0.72c-5.65295,1.07901-10.98102,3.44702-15.57001,6.92
				c-5.84601,4.19556-10.55176,9.78465-13.69,16.25999c-4.07867,8.57307-6.10547,17.97797-5.91998,27.47
				c0.06,42.96002,0.06,85.92003,0,128.88002v4.89999h-63.27002C676.40997,327.17001,676.15997,21.23,676.91998,15.55z"/>
			<path d="M996.29999,168.17h-57.62c-0.47961-3.93254-0.20471-7.92047,0.81-11.75c1.19586-5.35229,2.86926-10.58658,5-15.64
				c2.729-5.97029,6.27277-11.53328,10.53003-16.53c6.88-8.32,15.39001-14.62,24.77002-19.68
				c4.98779-2.53979,10.19586-4.62166,15.56-6.22c5.76318-1.97465,11.66199-3.52872,17.65002-4.65
				c22.35004-4.146,45.34894-3.17504,67.26996,2.84c5.59888,1.65606,11.0509,3.7733,16.30005,6.33
				c4.3551,1.90633,8.52026,4.21995,12.43994,6.91c4.15308,2.99369,8.04077,6.33938,11.62,10
				c6.97754,6.91576,12.24097,15.36748,15.37,24.68001c2.84436,8.1566,4.34058,16.72215,4.43005,25.36
				c0,51.70001,0,103.40335,0,155.10999c0,1.64001-0.16003,3.28-0.25,5.07999h-63.63V295c-1.26001,1.07999-2,1.44-2.31995,2
				c-3.36145,5.47903-7.35559,10.54382-11.90002,15.09c-4.58716,4.71423-9.84363,8.72729-15.6001,11.91
				c-4.73816,2.50677-9.69543,4.57535-14.81006,6.17999c-11.77002,4-24,4.51999-36.21997,3.37
				c-9.78882-0.91635-19.34943-3.49673-28.27002-7.63c-7.96875-3.56451-15.17657-8.63004-21.22992-14.91998
				c-8.46655-8.81653-14.27545-19.84171-16.76001-31.81c-2.09387-9.25049-2.39258-18.81689-0.88-28.17999
				c1-5.86,2.15997-11.75999,5.44-17c1.40002-2.21001,2.39001-4.67,3.81-6.87c5.65991-8.60049,13.41705-15.61772,22.53998-20.39
				c4.7843-2.68321,9.75354-5.02246,14.87-7c5.0495-1.83403,10.23108-3.28154,15.5-4.33
				c6.06531-1.3555,12.21124-2.32082,18.40002-2.89c15.28003-1.21001,30.59998-2,45.90002-3c6.93005-0.45,13.84998-1,21.16003-1.5
				c0.09998-0.95,0.29004-2,0.30005-3c0-4.44,0.22998-8.89,0-13.31999c-0.63-10.83-4.57996-20.05-14.25-25.8
				c-5.56689-3.33542-11.85278-5.28668-18.32996-5.69c-7.68994-0.48-15.33997-0.27-22.78003,2.12
				c-9.54999,3.06-17.57001,8.06-22,17.45C998.00549,162.52153,997.0636,165.32037,996.29999,168.17z M1076.48999,228.17
				c-1.42004,0-2.23999-0.05-3,0c-6.45996,0.41-12.91003,0.86-19.37,1.25999c-10.17004,0.63-20.35999,1-30.5,1.94
				c-7.05725,0.53017-13.91364,2.59492-20.09003,6.05c-4.78998,2.75-8.65002,6.5-10.65002,11.64999
				c-2.22321,5.47308-2.68121,11.50395-1.31,17.25002c1.25781,5.14313,4.14471,9.74182,8.22998,13.10999
				c4.45001,3.84,10,5.57001,15.59998,6.84c7.76056,1.70364,15.80127,1.67633,23.55005-0.07999
				c4.21155-0.8797,8.32507-2.17609,12.28003-3.87c5.67639-2.52423,10.74927-6.22998,14.88-10.87
				c3.65015-3.93488,6.42749-8.59671,8.15002-13.67999c1.79822-5.34798,2.58496-10.98402,2.31995-16.62
				c-0.23999-4.15002-0.08997-8.33002-0.08997-12.96002V228.17z"/>
			<path d="M2240.88989,96.35H2308c-0.72998,2.61-1.29004,5-2.08008,7.35c-2.17993,6.44-4.47998,12.83-6.67993,19.26
				c-3.29004,9.57999-6.61011,19.15-9.80005,28.77c-3.37988,10.2-6.54004,20.47-10,30.66c-2.5,7.45-5.34009,14.78-7.88989,22.22
				c-1.69995,5-3.13989,10-4.72998,15c-0.57007,1.81-1.26001,3.58-1.88989,5.37c-3.86011,11.17-7.78003,22.31999-11.56006,33.50999
				c-4.07007,12.10999-8,24.26999-12,36.39001c-3.58008,10.87-7.07007,21.76999-10.84009,32.57001
				c-2.81006,8.09-5.58008,16.23999-9.12012,24c-5.45996,12-12.26001,23.17001-22.09009,32.26001
				c-6.09375,5.71011-13.06616,10.40332-20.6499,13.89999c-7.07617,3.18521-14.49976,5.53442-22.12012,7
				c-13.5,2.70001-27.1499,3-40.82007,2.34c-5.26001-0.23999-10.51001-0.89001-15.75-1.47c-1.88989-0.20999-3.73999-0.75-5.5-1.12
				c-0.87012-3.39999-0.8501-43.78,0.06006-47.07001l3,0.26001c6.18994,0.54001,12.37988,1.34,18.59009,1.51999
				c6.59937,0.27225,13.17773-0.90894,19.27002-3.45999c5.00854-2.09564,9.1167-5.89203,11.6001-10.72
				c2.18994-4.20999,3.72998-8.76001,5.52002-13.17999c1-2.54001-0.58008-4.66-1.30005-6.85999
				c-1.91992-5.76001-4.06006-11.45001-6.09009-17.17001c-2.38013-6.74667-4.75342-13.5-7.12012-20.26001
				c-2.15991-6.19-4.26001-12.39999-6.44995-18.57999s-4.5-12.34-6.69995-18.52c-2.36011-6.64999-4.62012-13.31999-7-20
				c-2.62012-7.42-5.30005-14.81999-8-22.23c-1.40015-3.92-2.80347-7.84666-4.20996-11.78c-3-8.53-6.1499-17-9.1499-25.60001
				c-2.12988-6.07001-4.05005-12.2-6.17993-18.25999c-2.44995-7-5.06006-13.89999-7.53003-20.87
				c-4.08008-11.57334-8.13013-23.15334-12.1499-34.74001c2.54004-0.9,63.57007-1.23,69.87012-0.4
				c16.52002,60.75001,32.77002,121.68,49.42993,182.91c1.39307-0.8494,2.33521-2.27539,2.57007-3.89001
				c1.12012-4.39999,2.30005-8.78,3.5-13.16c2.26001-8.28,4.58008-16.56,6.81006-24.85001c2.09009-7.73,4.06006-15.48,6.15991-23.2
				c2.28003-8.42,4.68994-16.8,6.94995-25.21001c2.16992-8.07001,4.13989-16.2,6.36011-24.25999
				c2.59009-9.42,5.37988-18.78999,8-28.21001c1.43994-5.17,2.71997-10.39,4.12012-15.58c1.55005-5.77,3.16992-11.52,4.69995-17.29
				C2239.81006,101.34,2240.30005,98.9,2240.88989,96.35z"/>
			<path d="M1790.20996,213.34c0.28003,9.36,0,18.75-1.80005,27.94c-1.59998,7.92-3.93005,15.72-6.20996,23.48999
				c-2.43005,8.26999-6.58997,15.84-11.18005,23c-3.30005,5.17999-6.88,10.31-11.63,14.44
				c-3.58997,3.12-6.93994,6.5-10.52002,9.64001c-4.87,4.28-10.51001,7.39999-16.22998,10.35999
				c-9.9165,5.01785-20.52698,8.52655-31.47998,10.41c-12.14319,2.27408-24.53198,2.94647-36.84998,2
				c-7.65002-0.62-15.27002-1.28-22.72998-3.23999c-7.09265-1.68195-14.0177-4.00482-20.68994-6.94
				c-6.77002-3.17999-13.45996-6.66-19.26001-11.47c-4.57043-3.62469-8.91199-7.52884-13-11.69
				c-3.82251-4.10815-7.26648-8.55283-10.29004-13.28c-3.13892-4.93619-5.89685-10.10449-8.25-15.45999
				c-2.08386-4.82321-3.84119-9.78107-5.26001-14.84c-1.55005-5.27-2.70996-10.64999-3.93005-16
				c-0.38879-1.87852-0.63281-3.78412-0.72998-5.7c-0.70996-10.27-2.34998-20.5-1.28003-30.84
				c0.80005-7.74001,1.07996-15.59,2.60999-23.18001c2.17688-11.62755,5.99512-22.88675,11.33997-33.44
				c4.92395-9.55997,11.25818-18.32474,18.79004-26c6.29089-6.37173,13.46411-11.8072,21.30005-16.14
				c10.13855-5.62219,21.07385-9.66853,32.43005-12c12.30664-2.69253,24.92188-3.70174,37.5-3c6.66003,0.45,13.25,1.87,19.88,2.8
				c6.6322,1.04993,13.104,2.93839,19.26001,5.61999c4.86365,1.95705,9.62024,4.17014,14.25,6.63
				c7.10974,3.92362,13.67273,8.76513,19.52002,14.4c6.94214,6.51413,12.90112,14.00234,17.68994,22.23
				c5.20251,9.11691,9.21509,18.86296,11.93994,29C1789.0387,185.51903,1790.65979,199.4243,1790.20996,213.34z M1725.92993,212.86
				c-0.12988-8.52457-1.05725-17.01826-2.77002-25.37c-1.31006-6.69873-3.5166-13.19044-6.56006-19.3
				c-3.37-6.59-7.68994-12.66-13.71997-17.16c-2.90088-2.29329-6.07922-4.21175-9.45996-5.71001
				c-4.19861-1.75179-8.60999-2.94205-13.12-3.53999c-9.44141-1.2202-19.02954,0.4977-27.45996,4.92
				c-6.7356,3.59894-12.41858,8.88901-16.48999,15.35001c-3.85828,5.87656-6.78918,12.31187-8.68994,19.08
				c-2.38831,8.40863-3.78784,17.06712-4.17004,25.8c-0.57251,11.38423,0.45764,22.79245,3.06006,33.89c2,8.69,5,17,10.15002,24.31
				c8.15002,11.59,18.92004,18.76001,33.41003,19.26999c7.64001,0.26999,15.18994,0.29999,22.57996-2.82999
				c8.06042-3.42545,14.96509-9.09775,19.89001-16.34c6.85999-9.78,10-21.07001,11.77002-32.67999
				c0.99988-6.49002,1.07996-13.12003,1.57996-19.69002H1725.92993z"/>
			<path d="M435.32999,258.81H497.19c0.38913,0.84418,0.72318,1.71265,1,2.60001c2.12,9,6.75,16.44,14.52002,21.38998
				c5.73535,3.76208,12.3537,5.9613,19.20001,6.38c7.91998,0.41,15.83002,0.67999,23.69-0.63
				c6.8949-1.00467,13.33301-4.0444,18.48999-8.73001c2.66388-2.4473,4.49304-5.66849,5.22998-9.20999
				c0.83765-3.98877,0.73492-8.1178-0.29999-12.06c-1.25-4.92-4.63-8.25999-8.92999-10.69c-7.16998-4.06-15-6.10001-23-7.75999
				c-6.78998-1.41-13.54999-3-20.34003-4.46001c-5.26001-1.12-10.53998-2.16-15.82001-3.22
				c-7.14709-1.40256-14.19272-3.28006-21.09-5.62c-7.57397-2.55768-14.78415-6.08713-21.45001-10.5
				c-6.40414-4.2038-11.97748-9.55339-16.44-15.78C443.81,189,441,176.16,441.35999,162.25999
				c0.12634-6.58852,1.23868-13.12097,3.29999-19.38c2.59094-7.9678,6.85251-15.29091,12.5-21.48
				c3.2468-3.62756,6.81461-6.95441,10.66-9.94c7.43375-5.43992,15.63736-9.74057,24.34003-12.75999
				c11.57001-4.19,23.64999-6.07,35.81003-7.08c11.35046-0.88341,22.76599-0.39657,34,1.45c9.95221,1.49557,19.6886,4.18149,29,8
				c8.06842,3.31628,15.56635,7.87847,22.21997,13.52c6.01978,5.12283,11.15216,11.20467,15.19,18
				c3.13757,5.21848,5.44513,10.89285,6.84003,16.82001c1.07001,4.64999,1.67999,9.39999,2.40002,14.12
				c0.08972,1.13823,0.08972,2.28177,0,3.42c-3.14001,0.89999-55.08002,1-58.64001,0.12
				c-0.21997-1.28999-0.39001-2.7-0.71002-4.07001c-1.38965-6.48137-4.81256-12.34969-9.77002-16.75
				c-3.20459-2.84842-6.90631-5.08234-10.91998-6.59c-9.63751-3.47672-20.05151-4.20723-30.08002-2.11
				c-7.46997,1.44-14.52002,4.19-19.42001,10.47c-6,7.69-6.81,18.42-0.09,26.12c2.37534,2.65202,5.25012,4.80983,8.46002,6.35001
				c6.2876,2.93269,12.96155,4.95306,19.82001,6c3.53003,0.59,7,1.55,10.48999,2.33c3.72998,0.84,7.47998,1.63,11.20001,2.50999
				c9.87,2.33,19.89001,3.92999,29.66998,6.75c7.25317,1.97543,14.35211,4.47878,21.23999,7.49001
				c6.79755,2.9707,13.06879,7.02321,18.57001,12c4.41028,4.03027,8.02307,8.85414,10.65002,14.22
				c6.65002,13.83,6.38,28.28001,3.90997,42.87999c-1.19,7-4.27002,13.34-7.91998,19.42999
				c-5.07587,8.2554-11.81567,15.36301-19.78998,20.87c-6.05157,4.24899-12.57507,7.78256-19.44,10.53
				c-6.46265,2.48282-13.08411,4.5307-19.82001,6.13c-3.4718,0.92981-7.00836,1.59833-10.58002,2
				c-9.77002,1.04999-19.59003,2-29.42999,1.42001c-7.77576-0.40164-15.52386-1.2262-23.20999-2.47
				c-7.28915-1.27353-14.4776-3.06815-21.51001-5.37c-5.08255-1.71143-9.98853-3.90823-14.64999-6.56
				c-5.23798-2.85999-10.15009-6.28-14.65002-10.19998c-10.34-9.10001-18-20-21.82999-33.42999
				c-1.37-4.82001-2.48999-9.72-3.64001-14.60999C435.36688,261.21732,435.29999,260.01343,435.32999,258.81z"/>
			<path d="M32.49,144.55H0V96.23h32.27c0.44-4.89,0.16-9.53,0.21-14.16c0.05-4.79,0-9.59,0-14.39V39.47h64.3V96H139v48.39H97
				c-0.12,1.32001-0.3,2.34-0.3,3.37c0,36.83-0.07,73.66,0.06,110.49001c-0.13866,4.92429,0.61341,9.8331,2.22,14.48999
				c3.26,8.64001,10,12.66,18.59,13.48001c6.41,0.62,12.93001,0,19.39999,0h2v46.31c-1.80391,0.43201-3.62993,0.76584-5.47,1
				c-9.91,0.85999-19.82,1.82001-29.79,1.45001c-12.49-0.47-24.89-1.72-36.58-6.44c-10.14-4.10001-18.62-10.42001-24.55-19.86002
				C38.4,302,36,294.63,34.43,286.79999c-1.40277-7.4129-2.07267-14.94586-2-22.48999c0-38.40001,0-76.79333,0-115.17999
				L32.49,144.55z"/>
			<path d="M174.7,330V96.72c2.75-0.71,59.11-0.89,63.69-0.17v40l0.89,0.21001c0.53905-0.95477,0.98445-1.95946,1.33-3
				c2.04399-8.48479,5.90634-16.42443,11.31999-23.27c6.67899-8.64738,16.1084-14.75726,26.73001-17.32
				c6.14578-1.6466,12.52521-2.24499,18.87-1.77c4.39001,0.4,8.73001,1.39,13,2.1c0.88,2.76,1.13,50.89001,0.32001,55.7
				c-0.89001-0.10001-1.79999-0.17999-2.70001-0.32001c-4.37-0.7-8.70999-1.63-13.10001-2.10001
				c-9.92566-1.21185-19.99689,0.05951-29.31,3.7c-6.02341,2.34686-11.35539,6.17902-15.5,11.14
				c-4.67725,5.76268-7.99303,12.50702-9.7,19.73c-1.48444,6.05234-2.19345,12.26883-2.11,18.5c0,41.75333,0,83.50667,0,125.25999
				V330H174.7z"/>
			<path d="M338.87,329.94V96.77C341.45001,96,396,95.69,402,96.4c0.69,2.58,0.84,229.29001,0.10999,233.54001H338.87z"/>
			<path d="M404.42001,34.89c0.59,8-3.62,15.72-10.09,22.06c-4.57751,4.42569-10.37122,7.38522-16.64001,8.5
				c-6.25482,1.21354-12.71814,0.77231-18.75-1.28c-6.88571-2.21005-12.79602-6.73197-16.73001-12.8
				c-4.10999-6.23-6.35999-13.08-5.76999-20.69c0.29648-3.32786,1.09555-6.59158,2.37-9.68
				c2.40326-6.13164,6.58151-11.40668,12-15.15c4.92557-3.45069,10.72382-5.44351,16.73001-5.75C380-0.7,390.35999,3.24,398,13.31
				C403,19.79,404.57001,25.08,404.42001,34.89z"/>
		</g>
	</g>
</g>
</svg>
